<mxfile host="app.diagrams.net" modified="2024-07-06T14:47:40.315Z" agent="Mozilla/5.0 (Windows NT 10.0; Win64; x64) AppleWebKit/537.36 (KHTML, like Gecko) Chrome/126.0.0.0 Safari/537.36" version="24.6.4" etag="5ghd1-l8qQgGAZJiLh2R" type="github">
  <diagram name="PÃ¡gina-1" id="ju_4Zwq-eicL8SWlYY7z">
    <mxGraphModel>
      <root>
        <mxCell id="0" />
        <mxCell id="1" parent="0" />
      </root>
    </mxGraphModel>
  </diagram>
</mxfile>
